<svg width="498" height="498" viewBox="0 0 498 498" fill="none" xmlns="http://www.w3.org/2000/svg">
<g clip-path="url(#clip0)">
<path d="M355.581 158.864H297.369C297.369 146.978 288.104 136.563 274.213 130.75L309.985 75.661C310.8 75.796 311.634 75.884 312.491 75.884C320.915 75.884 327.743 69.055 327.743 60.632C327.743 52.209 320.915 45.381 312.491 45.381C304.067 45.381 297.239 52.209 297.239 60.632C297.239 63.743 298.177 66.633 299.774 69.046L262.063 127.122C257.817 126.301 253.338 125.852 248.704 125.852C244.07 125.852 239.591 126.301 235.345 127.122L167.523 22.678C168.993 20.385 169.856 17.666 169.856 14.74C169.856 6.6 163.256 0 155.116 0C146.976 0 140.376 6.6 140.376 14.74C140.376 22.881 146.976 29.48 155.116 29.48C155.865 29.48 156.596 29.406 157.316 29.298L223.194 130.75C209.301 136.563 200.038 146.978 200.038 158.864H141.826C85.609 158.864 40.037 204.436 40.037 260.653V372.62C40.037 420.041 72.465 459.887 116.355 471.194C115.894 479.482 115.666 497.407 122.319 497.407C128.203 497.407 137.95 483.384 143.588 474.407H353.818C359.456 483.384 369.203 497.407 375.087 497.407C381.74 497.407 381.512 479.482 381.051 471.194C424.943 459.885 457.369 420.041 457.369 372.62V260.653C457.37 204.436 411.797 158.864 355.581 158.864ZM334.818 414.945H109.332C98.286 414.945 89.332 405.991 89.332 394.945V238.455C89.332 227.409 98.286 218.455 109.332 218.455H334.818C345.864 218.455 354.818 227.409 354.818 238.455V394.945C354.818 405.991 345.864 414.945 334.818 414.945ZM397.37 379.42C384.3 379.42 373.703 368.824 373.703 355.753C373.703 342.682 384.3 332.086 397.37 332.086C410.44 332.086 421.037 342.682 421.037 355.753C421.037 368.824 410.44 379.42 397.37 379.42ZM397.37 287.753C384.3 287.753 373.703 277.157 373.703 264.086C373.703 251.016 384.3 240.419 397.37 240.419C410.44 240.419 421.037 251.016 421.037 264.086C421.037 277.157 410.44 287.753 397.37 287.753Z" fill="white"/>
</g>
<defs>
<clipPath id="clip0">
<rect width="497.407" height="497.407" fill="white"/>
</clipPath>
</defs>
</svg>
