<svg width="188" height="493" viewBox="0 0 188 493" fill="none" xmlns="http://www.w3.org/2000/svg">
<path d="M174.999 467.52H165.54V412.577H168.167C171.286 412.577 173.815 410.046 173.815 406.927C173.815 403.808 171.286 401.277 168.167 401.277H165.54V380.12H122.946C120.176 379.633 118.845 378.129 117.978 374.773C115.263 364.265 115.809 353.821 119.598 343.726C124.469 330.742 125.807 316.433 123.686 299.989C123.548 298.92 123.407 297.849 123.263 296.779C122.019 287.446 120.844 278.631 122.789 270.146C127.412 250.009 132.173 226.478 130.109 202.021C129.592 195.904 129.238 189.621 128.893 183.546C128.789 181.68 128.682 179.813 128.574 177.945C128.504 176.761 128.582 176.144 128.643 175.863C142.008 169.834 144.537 157.047 146.211 148.578C146.821 145.483 147.235 142.394 147.637 139.407C148.243 134.876 148.818 130.595 150.006 126.654C153.019 116.686 153.65 101.341 151.943 89.58C150.714 81.113 146.016 75.008 138.715 72.389C135.153 71.113 110.118 64.27 112.155 54.907C114.151 45.739 118.665 32.742 118.879 23.546C119.071 15.114 116.15 0.843 94.414 0.013L94.158 0L93.899 0.011C72.169 0.841 69.248 15.113 69.44 23.543C69.649 32.732 74.826 45.726 76.825 54.902C78.863 64.268 53.161 71.111 49.597 72.389C42.299 75.006 37.603 81.112 36.373 89.578C34.665 101.34 35.298 116.684 38.308 126.652C39.499 130.595 40.072 134.881 40.68 139.414C41.079 142.398 41.493 145.483 42.104 148.577C43.777 157.029 46.3 169.783 59.673 175.865C59.734 176.147 59.813 176.767 59.742 177.947L59.428 183.431C59.084 189.542 58.727 195.863 58.207 202.018C56.143 226.476 60.903 250.008 65.526 270.143C67.472 278.627 66.297 287.444 65.054 296.778C64.911 297.848 64.769 298.918 64.631 299.985C62.509 316.432 63.846 330.74 68.719 343.725C72.509 353.823 73.054 364.266 70.339 374.772C69.471 378.126 68.141 379.629 65.37 380.118H22.776V401.35C20.017 401.723 17.882 404.065 17.882 406.925C17.882 409.784 20.017 412.125 22.776 412.499V467.52H13.32C6.47102 467.52 0.921021 473.071 0.921021 479.916C0.921021 486.764 6.47202 492.317 13.32 492.317H174.999C181.843 492.317 187.395 486.762 187.395 479.916C187.396 473.07 181.843 467.52 174.999 467.52ZM149.815 446.926H38.502V419.438H149.815V446.926Z" fill="#E1BB5A"/>
</svg>
